<?xml version="1.0" standalone="no"?>
<!DOCTYPE svg PUBLIC "-//W3C//DTD SVG 20010904//EN"
 "http://www.w3.org/TR/2001/REC-SVG-20010904/DTD/svg10.dtd">
<svg version="1.0" xmlns="http://www.w3.org/2000/svg"
 width="1167.000000pt" height="1167.000000pt" viewBox="0 0 1167.000000 1167.000000"
 preserveAspectRatio="xMidYMid meet">
<metadata>
Created by potrace 1.14, written by Peter Selinger 2001-2017
</metadata>
<g transform="translate(0.000000,1167.000000) scale(0.100000,-0.100000)"
fill="#000000" stroke="none">
<path d="M0 5835 l0 -5835 5835 0 5835 0 0 5835 0 5835 -5835 0 -5835 0 0
-5835z m6110 3375 c301 -18 553 -63 811 -146 417 -134 821 -364 1178 -671 l34
-29 -207 -176 -208 -176 -96 76 c-324 253 -729 444 -1120 526 -214 45 -381 59
-647 53 -321 -7 -528 -42 -802 -133 -720 -239 -1311 -776 -1631 -1480 -121
-266 -192 -525 -227 -832 -21 -175 -13 -548 14 -726 102 -656 443 -1262 951
-1688 211 -177 506 -351 778 -457 506 -197 1115 -233 1661 -100 425 104 849
334 1196 648 50 45 95 79 101 77 26 -10 424 -301 424 -310 0 -12 -149 -156
-260 -250 -499 -423 -1066 -676 -1715 -763 -183 -24 -658 -24 -835 0 -378 53
-682 145 -1015 307 -1014 494 -1695 1447 -1837 2570 -8 67 -13 212 -12 405 0
323 12 444 70 704 108 484 334 945 671 1371 98 124 381 402 513 504 544 420
1165 657 1820 695 197 12 199 12 390 1z m40 -811 c317 -29 644 -129 939 -286
157 -84 416 -262 401 -275 -6 -5 -324 -257 -385 -305 l-40 -31 -75 50 c-490
323 -1122 404 -1685 217 -423 -141 -791 -431 -1026 -809 -73 -118 -172 -327
-209 -439 -65 -201 -82 -313 -86 -566 -4 -242 3 -315 47 -500 86 -364 313
-739 599 -991 266 -235 594 -393 952 -460 112 -21 438 -30 564 -15 366 43 679
170 963 392 l100 78 213 -150 c117 -83 219 -156 226 -163 11 -10 2 -23 -50
-71 -191 -177 -511 -372 -788 -480 -436 -170 -978 -205 -1455 -93 -238 55
-560 195 -775 336 -296 193 -579 483 -762 779 -187 302 -303 623 -354 978 -21
146 -23 464 -5 610 92 730 491 1381 1091 1780 486 324 1036 466 1600 414z
m2672 -5268 c75 -36 134 -94 170 -169 30 -59 33 -76 33 -152 0 -76 -4 -93 -33
-152 -38 -77 -92 -130 -171 -167 -47 -22 -70 -26 -146 -26 -76 0 -99 4 -146
26 -75 35 -134 96 -172 177 -26 56 -31 77 -30 141 1 155 77 267 222 328 74 31
201 28 273 -6z"/>
</g>
</svg>
